<svg xmlns="http://www.w3.org/2000/svg" viewBox="0 0 347 85.1">
<path fill="#08f" d="m31.4 85.1c18.6 0 31.4-8.8 31.4-42.6 0-33.7-12.8-42.5-31.4-42.5s-31.4 8.8-31.4 42.6c0 33.7 12.8 42.5 31.4 42.5z"/>
<path fill="#fff" d="m34.8 21v14l7-7zm0 43.1 7-7-7-7zm-7.5-21.5-15.2-15.3 4.4-4.4 12.1 12.1v-29l22 22-14.5 14.6 14.6 14.6-22 22v-29.1l-12.2 12.1-4.4-4.4z"/>
<path fill="#000" d="m87.2 45.6c10.4-.488 11.5 2.93 11.6 9 0 6.02-1.45 9.5-11.5 9v-18zm0-24.1c8.94-.408 10.3 2.6 10.4 8.3 0 7.5-4.73 7.5-10.5 7.5v-15.8zm-10.1 50.5h16c11.5 0 15.8-7.3 15.8-17 0-7.6-3-11.6-8.1-13.9 4.9-2 7-7.2 7-12.3 0-10-4.8-15.5-15.6-15.5h-15v58.7zm44.9 0v-58.8h-9.1v58.8zm24-43.8v34.3c-2.1 1.5-3.9 2.8-5.9 2.8s-3.3-1-3.3-3.2v-33.9h-9.1v35.4c0 5.7 2.8 9.2 7.6 9.2 5.3 0 7.2-2 11.1-5.2v4.4h8.6v-43.8zm24 16.1c0-4.33-.06-9.36 5-9.5 5.34 0 5 5.22 5 9.5zm19.3-.7c0-9.6-3.7-16.3-14.2-16.3-10.4 0-14.2 6.7-14.2 16.3v12.9c0 9.6 3.7 16.3 14.2 16.3 10.2 0 14-6.3 14.2-15.6h-9.1c-.09 4.1-.144 8.2-5 8.2-3.3 0-5-2.1-5-7.2v-6.3h19.2v-8.3zm7.7-7.9v27.3c0 6.7 3.8 9.8 10.7 9.8 2.3 0 3.3-.2 4.6-.5v-7.8h-3c-2.1 0-3.1-1.3-3.1-3.6v-25.2h6.1v-7.5h-6.1v-11.8h-9.1v11.8h-5v7.5zm39 22.4c0 5-1.8 7.2-5 7.2-3.3 0-5-2.1-5-7.2v-16.1c0-11.2 10.8-8.94 10 0zm-19.2-1.6c0 9.6 3.7 16.3 14.2 16.3 10.4 0 14.2-6.7 14.2-16.3v-12.9c0-9.6-3.7-16.3-14.2-16.3-10.4 0-14.2 6.7-14.2 16.3zm52.3 1.6c0 5-1.8 7.2-5 7.2-3.3 0-5-2.1-5-7.2v-16.1c0-11.2 10.8-8.94 10 0zm-19.2-1.6c0 9.6 3.7 16.3 14.2 16.3 10.4 0 14.2-6.7 14.2-16.3v-12.9c0-9.6-3.7-16.3-14.2-16.3-10.4 0-14.2 6.7-14.2 16.3zm35.3-20.8v27.3c0 6.7 3.8 9.8 10.7 9.8 2.3 0 3.3-.2 4.6-.5v-7.8h-3c-2.1 0-3.1-1.3-3.1-3.6v-25.2h6.1v-7.5h-6.1v-11.8h-9.1v11.8h-5v7.5zm30.8 36.3v-34.4c2.86-2.6 9.2-5.12 9.2.4v34h9.1v-35.4c-.904-13.3-12.1-10.6-18.2-4.3v-19h-9.1v58.7zm30.9-52.5c0 3.5-3 6.4-6.4 6.4-3.6 0-6.4-2.8-6.4-6.4 0-3.5 2.9-6.4 6.4-6.4 3.6 0 6.4 2.8 6.4 6.4zm-11.5-.1c0 2.7 2.2 5.1 5 5.1s5-2.3 5-5c0-2.8-2.2-5.1-5-5.1-2.7 0-5 2.3-5 5zm6.2 3.6-2-3.1h-.1v3.1h-1.2v-7.1h2.1c1.7 0 2.4.7 2.4 1.8 0 1.2-.7 1.9-1.9 2 .2.2.4.6.7 1l1.5 2.2h-1.5zm-1.2-6.1h-.8v2.2h.5c1.1 0 1.5-.6 1.5-1.2 0-.7-.4-1-1.2-1z"/>
</svg>
