<svg xmlns="http://www.w3.org/2000/svg" viewBox="0 0 142.4 121.7">
<g fill="#00a9ce">
<path d="m35.85 10.017q.649-1.125 1.948-1.875l12.804-7.392q2.598-1.5 5.196 0l33.402 19.285v-20.035q1.299 0 2.598.75l12.804 7.392q2.598 1.5 2.598 4.5v35.57q0 1.5-.65 2.625z"/>
<path opacity="0.5" d="m106.55 50.837q-.649 1.125-1.948 1.875l-12.804 7.392q-2.598 1.5-5.196 0l-33.402-19.285v20.035q-1.299 0-2.598-.75l-12.804-7.392q-2.598-1.5-2.598-4.5v-35.57q0-1.5.65-2.625z"/>
<path opacity="0.6" d="m71.2 9.642 15.402-8.892q1.299-.75 2.598-.75v20.035z"/>
<path opacity="0.8" d="m71.2 51.212-15.402 8.892q-1.299.75-2.598.75v-20.035z"/>
</g>
<path d="m38.1 81.301c-7.2 0-12.7 5.199-12.7 12.699 0 7.6 5.5 12.699 12.7 12.699 7.2 0 12.701-5.199 12.701-12.699 0-7.5-5.501-12.699-12.701-12.699zm87.099 0c-7.7 0-13.099 4.999-13.099 12.699 0 7.6 5.499 12.599 13.099 12.699 3.8 0 6.501-1.199 8.701-2.699l-2.599-3.9c-1.5 1-3.502 2-6.102 2-4.7 0-8.199-3.1-8.199-8.1 0-4.9 3.499-8.1 8.199-8.1 2.6 0 4.602 1 6.102 2l2.599-3.9c-2.2-1.6-5.001-2.699-8.701-2.699zm-69.599.5 0 24.299 4.4 0 0-9.7 1.699 0 6.5 9.7 5.602 0-7.201-9.901c3.6-.7 5.701-3.4 5.701-7 0-4.4-3.001-7.398-7.801-7.398l-8.9 0zm22.099 0 0 24.299 7.801 0c7.3 0 12.6-4.5 12.6-12.1 0-7.6-5.3-12.199-12.6-12.199l-7.801 0zm25.102 0 0 24.299 4.5 0 0-24.299-4.5 0zm-102.201.099 0 24.299 4.4 0 0-16.699 11.9 16.6 4.1 0-.1-24.2-4.4 0 0 16.7-11.801-16.7-4.099 0zm139.099 0c-1.5 0-2.699 1.2-2.699 2.7 0 .017.002.034.002.05 0 .017-.002.033-.002.049 0 1.5 1.199 2.701 2.699 2.701 1.5 0 2.701-1.201 2.701-2.701 0-.026-.001-.052-.002-.078.001-.007.002-.014.002-.021 0-1.5-1.201-2.7-2.701-2.7zm0 .401c.081 0 .164.004.242.012.039.003.078.008.116.013.001 0 .002 0 .004 0 .037.006.074.012.111.02.001 0 .003-.001.004 0 .074.015.147.033.219.054.003.001.006.001.009.002.94.288 1.596 1.145 1.596 2.198 0 1.3-1.001 2.3-2.301 2.3-1.3 0-2.299-1-2.299-2.3 0-.667.264-1.254.696-1.668.371-.339.846-.565 1.363-.619.079-.008.159-.012.24-.012zm-1.099.898 0 3 .4 0 0-1.299.801 0c.485 0 .642.065.685.301.001.001 0 .003 0 .004.002.013.005.026.006.039.001.007.001.013.002.02.001.005.002.011.002.017.001.016.001.031.002.047.001.023.002.047.002.072l0 .1 0 .1 0 .5 0 .099.4 0c-.075-.15-.095-.355-.099-.533-.002-.059 0-.116 0-.166l0-.1c0-.019-.001-.038-.002-.056-.001-.016-.003-.032-.004-.047 0-.003 0-.007 0-.01-.001-.006-.001-.012-.002-.017-.025-.253-.122-.485-.293-.571.3-.2.4-.399.4-.699 0-.5-.4-.801-1-.801l-1.3 0zm1.3.102c.029 0 .06 0 .092.002-.03-.002-.06-.002-.092-.002zm-.9.299.801 0c.437 0 .6.118.662.23.002.004.004.008.006.012 0 0-.001.001 0 .002.014.034.025.071.029.109 0 .003 0 .005 0 .008.001.014.002.029.002.039 0 .013-.001.026-.002.039-.013.198-.135.461-.697.461l-.801 0 0-.9zm-100.9 2.3c4.5 0 7.8 3.3 7.8 8.1 0 4.8-3.2 8.1-7.8 8.1-4.5 0-7.799-3.3-7.799-8.1 0-4.8 3.299-8.1 7.799-8.1zm22 0 3.8 0c2.6 0 3.799 1.299 3.799 3.299 0 2.1-1.199 3.301-3.799 3.301l-3.8 0 0-6.6zm22.099 0 3.5.1c4.3 0 7.602 2.8 7.602 8 0 5.2-3.202 8-7.602 8l-3.5 0 0-16.1zm59.338.612c-.03.031-.062.06-.094.09.032-.029.064-.06.094-.09zm-.103.099c-.092.084-.189.16-.291.231.101-.07.199-.147.291-.231zm-.397.301c-.036.023-.074.044-.111.065.037-.021.075-.042.111-.065zm-.373.192c-.057.023-.115.044-.174.064.059-.02.117-.041.174-.064zm-.232.084c-.064.019-.128.038-.194.052.066-.014.13-.033.194-.052zm-137.131 25.113c-1.7 0-2.701.899-2.701 2.299 0 1 .4 1.7 1.4 2.4l1.5 1c.6.4.9.699.9 1.199 0 .5-.5.901-1.3.901-.8 0-1.701-.399-2.401-.799l-.699 1.5c.8.6 1.9.899 3.1.799 1.9 0 3.099-.9 3.099-2.6 0-1.1-.5-1.8-1.5-2.5l-1.599-1.1c-.5-.3-.7-.6-.7-.9 0-.4.201-.699.901-.699.6 0 1.198.299 1.898.599l.701-1.5c-.8-.4-1.699-.599-2.599-.599zm38.699 0c-2.9 0-4.9 1.899-4.9 4.699 0 2.9 2 4.699 4.9 4.699 1.4 0 2.399-.4 3.199-1l-.898-1.398c-.6.3-1.301.699-2.301.699-1.7 0-3-1.2-3-3 0-1.8 1.3-3 3-3 1 0 1.701.299 2.301.699l.898-1.398c-.8-.6-1.799-1-3.199-1zm10.6 0c-2.7 0-4.7 1.899-4.7 4.699 0 2.8 2 4.699 4.7 4.699 2.7 0 4.701-1.899 4.701-4.699 0-2.8-2.101-4.699-4.701-4.699zm46.4 0c-2.9 0-4.9 1.899-4.9 4.699 0 2.8 2.1 4.699 4.9 4.699 1.4 0 2.399-.4 3.199-1l-.898-1.398c-.6.3-1.301.699-2.301.699-1.7 0-3-1.2-3-3 0-1.8 1.3-3 3-3 1 0 1.701.299 2.301.699l.898-1.398c-.8-.6-1.799-1-3.199-1zm19.699 0c-2.7 0-4.699 1.899-4.699 4.699 0 2.8 1.999 4.699 4.699 4.699 2.7 0 4.701-1.899 4.701-4.699 0-2.8-2.101-4.699-4.701-4.699zm-108.898.199 0 9 5.398 0 0-1.5 0-.1-3.799 0 0-2.599 3.401 0 0-1.5-3.401 0 0-1.801 3.7 0 0-1.5-5.299 0zm10.5 0-1.602 9 1.701 0 .901-5.801 1.699 4.5 1.1 0 1.701-4.5.898 5.801 1.701 0-1.701-9-1.199 0-2 5.1-2-5.1-1.199 0zm11.699 0 0 9 1.699 0 0-9-1.699 0zm28.801 0 0 9 1.599 0 0-6.199 4.401 6.199 1.5 0 0-9-1.602 0 0 6.199-4.398-6.199-1.5 0zm11.5 0 0 9 2.898 0c2.7 0 4.701-1.7 4.701-4.5 0-2.8-2.001-4.5-4.701-4.5l-2.898 0zm11 0 0 5.4c0 2.2 1.299 3.7 3.699 3.7 2.4 0 3.699-1.4 3.699-3.7l0-5.4-1.699 0 0 5.301c0 1.3-.8 2.099-2 2.099-1.2 0-2-.799-2-2.099l0-5.301-1.699 0zm21.599 0 0 1.5 2.5 0 0 7.4 1.6 0 0-7.4 2.4 0 0-1.5-6.5 0zm21.901 0 0 9 1.599 0 0-3.6.6 0 2.5 3.6 2.1 0-2.7-3.699c1.3-.3 2.1-1.302 2.1-2.602 0-1.6-1.1-2.699-2.9-2.699l-3.299 0zm-74.201 1.5c1.7 0 2.9 1.2 2.9 3 0 1.8-1.2 3-2.9 3-1.7 0-2.901-1.2-2.901-3 0-1.8 1.201-3 2.901-3zm21.4 0 1.301 0c1.6 0 2.799 1.1 2.799 3 0 2-1.199 3-2.799 3l-1.301 0 0-6zm44.699 0c1.7 0 2.901 1.2 2.901 3 0 1.8-1.201 3-2.901 3-1.7 0-2.898-1.2-2.898-3 0-1.8 1.198-3 2.898-3zm9.701.1 1.401 0c1 0 1.398.501 1.398 1.201 0 .8-.498 1.199-1.398 1.199l-1.401 0 0-2.4z"/>
</svg>
