<svg xmlns="http://www.w3.org/2000/svg" viewBox="0 0 106 106">
<path d="m52.83.51a1.5 1.5 0 00-1.12.72l-2.67 4.45c-.46.04-.93.08-1.4.13l-3.48-3.84a1.5 1.5 0 00-1.23-.49 1.5 1.5 0 00-1.29.99l-1.75 4.89c-.45.13-.91.26-1.35.4l-4.16-3.08a1.5 1.5 0 00-.97-.3 1.5 1.5 0 00-1.41 1.28l-.77 5.15c-.41.21-.82.42-1.22.65l-4.7-2.22a1.5 1.5 0 00-.67-.15 1.5 1.5 0 00-1.47 1.58l.25 5.21c-.35.29-.71.57-1.05.87l-5.07-1.27a1.5 1.5 0 00-.34-.04 1.5 1.5 0 00-1.48 1.86l1.27 5.07c-.3.34-.58.7-.87 1.05l-5.21-.25a1.5 1.5 0 00-1.43 2.14l2.22 4.7c-.23.4-.44.81-.65 1.22l-5.15.77a1.5 1.5 0 00-.98 2.38l3.08 4.16c-.14.44-.27.9-.4 1.35l-4.89 1.75a1.5 1.5 0 00-.5 2.52l3.84 3.48c-.05.47-.09.94-.13 1.4l-4.45 2.67a1.5 1.5 0 000 2.58l4.45 2.67c.04.46.08.93.13 1.4l-3.84 3.48a1.5 1.5 0 00.5 2.52l4.89 1.75c.13.45.26.91.4 1.35l-3.08 4.16a1.5 1.5 0 00.98 2.38l5.15.77c.21.41.42.82.65 1.22l-2.22 4.7a1.5 1.5 0 001.43 2.14l5.21-.25c.29.35.57.71.87 1.05l-1.27 5.07a1.5 1.5 0 001.82 1.82l5.07-1.27c.34.3.7.58 1.05.87l-.25 5.21a1.5 1.5 0 002.14 1.43l4.7-2.22c.4.23.81.44 1.22.65l.77 5.15a1.5 1.5 0 002.38.98l4.16-3.08c.44.14.9.27 1.35.4l1.75 4.89a1.5 1.5 0 002.52.5l3.48-3.84c.47.05.94.09 1.4.13l2.67 4.45a1.5 1.5 0 002.58 0l2.67-4.45c.46-.04.93-.08 1.4-.13l3.48 3.84a1.5 1.5 0 002.52-.5l1.75-4.89c.45-.13.91-.26 1.35-.4l4.16 3.08a1.5 1.5 0 002.38-.98l.77-5.15c.41-.21.82-.42 1.22-.65l4.7 2.22a1.5 1.5 0 002.14-1.43l-.25-5.21c.35-.29.71-.57 1.05-.87l5.07 1.27a1.5 1.5 0 001.82-1.82l-1.27-5.07c.3-.34.58-.7.87-1.05l5.21.25a1.5 1.5 0 001.43-2.14l-2.22-4.7c.23-.4.44-.81.65-1.22l5.15-.77a1.5 1.5 0 00.98-2.38l-3.08-4.16c.14-.44.27-.9.4-1.35l4.89-1.75a1.5 1.5 0 00.5-2.52l-3.84-3.48c.05-.47.09-.94.13-1.4l4.45-2.67a1.5 1.5 0 000-2.58l-4.45-2.67c-.04-.46-.08-.93-.13-1.4l3.84-3.48a1.5 1.5 0 00-.5-2.52l-4.89-1.75c-.13-.45-.26-.91-.4-1.35l3.08-4.16a1.5 1.5 0 00-.98-2.38l-5.15-.77c-.21-.41-.42-.82-.65-1.22l2.22-4.7a1.5 1.5 0 00-1.43-2.14l-5.21.25c-.29-.35-.57-.71-.87-1.05l1.27-5.07a1.5 1.5 0 00-1.46-1.86 1.5 1.5 0 00-.36.04l-5.07 1.27c-.34-.3-.7-.58-1.05-.87l.25-5.21a1.5 1.5 0 00-1.43-1.57 1.5 1.5 0 00-.71.14l-4.7 2.22c-.4-.23-.81-.44-1.22-.65l-.77-5.15a1.5 1.5 0 00-1.41-1.28 1.5 1.5 0 00-.97.3l-4.16 3.08c-.44-.14-.9-.27-1.35-.4l-1.75-4.89a1.5 1.5 0 00-1.29-.99 1.5 1.5 0 00-1.23.49l-3.48 3.84c-.47-.05-.94-.09-1.4-.13l-2.67-4.45a1.5 1.5 0 00-1.46-.72zm.17 9.49a3 3 0 013 3 3 3 0 01-3 3 3 3 0 01-3-3 3 3 0 013-3zm-7.09 5.16 4.97 4.96a3 3 0 004.24 0l4.97-4.96c11.56 2.14 21.28 9.41 26.72 19.38l-3.2 6.28a3 3 0 001.32 4.04l6.24 3.18c.21 1.63.33 3.28.33 4.96 0 1.01-.05 2.01-.13 3l-3.87 0a.5.5 0 00-.5.5l0 2c0 1.91-.53 3.21-1.29 4.06-.77.84-1.79 1.26-2.86 1.32-2.15.11-4.42-1.25-4.86-3.48-.52-2.6-1.81-4.91-3.09-6.58-.65-.84-1.29-1.52-1.86-2-.2-.17-.39-.29-.57-.42 3.31-1.95 5.53-4.3 6.57-6.84 1.13-2.74 1.03-5.63.05-8.24-1.95-5.2-7.37-9.32-13.59-9.32l-40.93 0c5.52-6.04 12.95-10.29 21.34-11.84zm-30.95 22.48a3 3 0 013 3 3 3 0 01-3 3 3 3 0 01-3-3 3 3 0 013-3zm76.08 0a3 3 0 013 3 3 3 0 01-3 3 3 3 0 01-3-3 3 3 0 013-3zm-69.58 1.36 6.54 0 0 25-11.91 0c-1.03-3.48-1.59-7.17-1.59-11 0-1.68.12-3.33.33-4.96l6.24-3.18a3 3 0 001.32-4.04l-.93-1.82zm23.54 0 12.5 0c1.92 0 3.31.48 4.2 1.15.89.67 1.3 1.52 1.3 2.35 0 .83-.41 1.68-1.3 2.35-.89.67-2.28 1.15-4.2 1.15l-12.5 0 0-7zm0 18 9.5 0c2.61 0 4.08 1.06 5.14 2.74 1.06 1.67 1.62 4 2.12 6.36.5 2.37.93 4.77 1.85 6.65.93 1.88 2.46 3.25 4.89 3.25l15.41 0c-.9 1.21-1.88 2.36-2.91 3.46l-6.96-1.11a3 3 0 00-.67-.03 3 3 0 00-2.76 2.53l-1.1 6.96c-5 2.36-10.6 3.69-16.51 3.69-5.91 0-11.51-1.33-16.51-3.69l-1.1-6.96a3 3 0 00-2.76-2.53 3 3 0 00-.67.03l-6.96 1.11c-1.03-1.1-2.01-2.25-2.91-3.46l31.41 0a.5.5 0 00.5-.5l0-11a.5.5 0 00-.5-.5l-8.5 0 0-7zm-15.51 25.36a3 3 0 013 3 3 3 0 01-3 3 3 3 0 01-3-3 3 3 0 013-3zm47.02 0a3 3 0 013 3 3 3 0 01-3 3 3 3 0 01-3-3 3 3 0 013-3z"/>
</svg>
